<?xml version="1.0" encoding="utf-8"?>
<!-- Generator: Adobe Illustrator 22.1.0, SVG Export Plug-In . SVG Version: 6.00 Build 0)  -->
<svg version="1.1" id="Layer_1" xmlns="http://www.w3.org/2000/svg" xmlns:xlink="http://www.w3.org/1999/xlink" x="0px" y="0px"
	 viewBox="0 0 273.3 56" style="enable-background:new 0 0 273.3 56;" xml:space="preserve">
<style type="text/css">
	.st0{fill:#789C4A;}
</style>
<path class="st0" d="M155.4,21.6c-0.2-1.4-0.5-2.7-0.8-4c-0.8-2.8-2.2-5-4-6.8c-1.8-1.8-4.1-3-6.9-3.7c-1.1-0.3-2.3-0.5-3.5-0.7
	c-1.2-0.1-2.4-0.2-3.6-0.2c-1.1,0-2.1,0.1-3.2,0.2c-1.1,0.1-2.2,0.3-3.3,0.6c-2.9,0.7-5.2,2-7,3.7c-1.8,1.7-3.1,4-4,6.8v0.1
	c-0.4,1.2-0.7,2.5-0.8,4c-0.2,1.5-0.3,2.9-0.3,4.4c0,1.5,0.1,2.9,0.3,4.4c0.2,1.4,0.5,2.8,0.8,4c0.8,2.9,2.2,5.1,4,6.9
	s4.2,2.9,7,3.6c1.1,0.2,2.1,0.4,3.2,0.6c1.1,0.1,2,0.2,3.1,0.2c1.2,0,2.4-0.1,3.6-0.2c1.2-0.1,2.4-0.3,3.5-0.6
	c2.9-0.7,5.2-1.9,7.1-3.6c1.8-1.7,3.2-4,4-6.9c0.4-1.3,0.7-2.7,0.8-4.1c0.2-1.4,0.3-2.9,0.3-4.4C155.7,24.5,155.6,23.1,155.4,21.6z
	 M146.8,29c-0.1,1-0.3,1.9-0.5,2.8c-0.4,1.6-1,3-1.9,4.2s-2.2,2.1-3.8,2.6c-0.6,0.2-1.2,0.4-1.9,0.5c-0.7,0.1-1.3,0.2-2,0.2
	c-0.7,0-1.2-0.1-1.8-0.2c-0.7-0.1-1.3-0.3-1.9-0.5c-1.6-0.6-2.9-1.4-3.8-2.6s-1.5-2.6-1.9-4.2c-0.2-0.9-0.4-1.9-0.5-2.8
	c-0.1-1-0.2-1.9-0.2-2.9c0-0.9,0.1-1.9,0.2-2.9c0.1-1,0.3-1.9,0.5-2.9v0.1c0.4-1.6,1.1-3,2-4.2c0.9-1.2,2.1-2.1,3.7-2.6
	c0.6-0.2,1.2-0.4,1.9-0.5c0.7-0.1,1.2-0.2,1.8-0.2c0.7,0,1.3,0.1,2,0.2c0.7,0.1,1.3,0.3,1.9,0.5c1.6,0.5,2.9,1.4,3.8,2.6
	s1.5,2.6,1.9,4.3c0.2,0.9,0.4,1.9,0.5,2.8c0.1,1,0.2,1.9,0.2,2.9C147,27,146.9,28,146.8,29z"/>
<path class="st0" d="M17.4,7c-4.7,0-8,0.9-10.2,2.7c-2.1,2-3.2,4.9-3.2,9v26.3h8v-9.1h18.2v9.1h8V13.7V7H17.4z M30.2,29H12V18.9
	c0-1.7,0.8-3.1,1.9-3.9c1-0.9,2.5-1.2,4.7-1.2h11.7V29z"/>
<path class="st0" d="M178.2,13.7l7,0l0,0h10.2c0,0,0-0.2,0-0.2h0l0,0c-0.2-3.2-2.9-5-4.7-5.9c-0.8-0.4-2.1-0.8-3.4-0.8h-9.1
	c-6.2,0-10.2,1.7-13.1,4.9c-3,3.2-4.4,8.1-4.4,14.7c0,3.5,0.5,6.6,1.4,9.1c1,2.4,2.4,4.4,4.4,6c1.5,1.2,3.1,2,4.8,2.5
	c1.6,0.6,3.8,0.8,6.9,0.8h10.2c0,0,7.3,0.8,6.9-6.6V23.2l-12.3,0l-6.2-0.1V30h10.4v8h-9.1c-3.2,0-5.1-0.9-6.5-2.8
	c-1.5-1.9-2.2-4.9-2.2-9c0-4.4,0.7-7.7,2.2-9.7C173.1,14.5,175,13.7,178.2,13.7z"/>
<path class="st0" d="M72.2,28.9L72.2,28.9c2.4-0.6,3.9-1.8,5.1-3.4c1.3-1.9,2-4.2,2-7.1c0-3.9-1-6.8-3.2-8.6C74,7.9,70.6,7,66.1,7
	H46.7v38h7.9V30h9.1l0.2,0l0,0c0.9,2.8,6,15.7,14.9,16.3l0-8C78.8,38.4,74.5,34.8,72.2,28.9z M54.6,23.2v-9.5h9.6
	c2.8,0,4.5,0.4,5.6,1.1c0.9,0.6,1.4,1.9,1.4,3.6c0,1.6-0.5,2.9-1.5,3.6c-1,0.7-2.8,1-5.4,1H54.6z"/>
<polygon class="st0" points="95.2,13.8 95.2,44.9 103.5,44.9 103.5,13.8 115.8,13.8 115.8,7 83,7 83,13.8 "/>
<path class="st0" d="M232.8,29c-4.5-0.2-7.9-1.1-10.1-3c-2.1-1.7-3.2-4.4-3.2-8.2c0-2.8,0.7-5.1,2-6.9c1.2-1.6,2.7-2.7,5.1-3.3
	c2.4-0.6,6-0.6,6-0.6h6.1c4.5,0,7.9,0.9,10.1,2.8c1.8,1.5,2.8,3.8,3.1,6.7h-6.1h-2.3c-0.2-0.7-0.6-1.3-1.1-1.6
	c-0.9-0.6-2.3-1-4.3-1.1c-0.4,0-0.8,0-1.3,0l-3,0c-2.3,0.1-3.8,0.4-4.8,0.9c-0.6,0.3-1,0.9-1.2,1.6c0,0.1-0.1,0.3-0.1,0.5
	c0,0.1,0,0.3,0,0.4c0,0.2,0,0.4,0,0.7c0,1.7,0.5,2.7,1.4,3.4c1.1,0.7,3.2,1.1,5.9,1.3c0.5,0,5.1,0.1,8.3,0.8c2.7,0.5,5,1.5,6,2.4
	c2.1,1.7,3.2,4.8,3.2,8.5c0,2.8-0.7,5.1-2,6.9c-1.2,1.6-2.7,2.7-5.1,3.3c-2.4,0.6-6,0.6-6,0.6h-6.4c-4.5,0-7.9-0.9-10.1-2.8
	c-1.8-1.5-2.8-3.9-3.1-6.9h6.1h2.3c0.2,0.7,0.6,1.4,1.1,1.8c0.9,0.6,2.3,1,4.3,1.1c0.4,0,0.8,0,1.3,0l3,0c2.3-0.1,4.1-0.4,5.1-0.9
	c0.6-0.3,1-0.9,1.2-1.6c0-0.1,0.1-0.3,0.1-0.5c0-0.1,0-0.3,0-0.4c0-0.2,0-0.4,0-0.7c0-1.7-0.5-3.1-1.4-3.7c-0.6-0.4-2.1-0.9-5.1-1.2
	C236.1,29.1,232.8,29,232.8,29z"/>
<path class="st0" d="M211.1,12.6c-1-2.1-3.2-5.5-7.1-5.7l0,0v0l-0.3,0v12.4v25.6h8.3V27.8V15.7C211.9,14.5,211.5,13.4,211.1,12.6z"
	/>
<path class="st0" d="M261,6.9c3,0,5.5,2.5,5.5,5.5c0,3-2.5,5.5-5.5,5.5c-3,0-5.5-2.5-5.5-5.5C255.6,9.3,258,6.9,261,6.9z M261,16.9
	c2.5,0,4.5-2,4.5-4.5c0-2.5-2-4.5-4.5-4.5c-2.5,0-4.5,2-4.5,4.5C256.6,14.9,258.6,16.9,261,16.9z M258.8,9.4h2.3
	c1.5,0,2.2,0.5,2.2,1.7c0,1.1-0.7,1.6-1.5,1.7l1.6,2.6h-1.1l-1.6-2.5h-0.9v2.5h-1V9.4z M259.8,11.9h1.3c1,0,1.3-0.3,1.3-0.9
	c0-0.6-0.5-0.8-1.3-0.8h-1.3V11.9z"/>
</svg>
