<?xml version="1.0" encoding="UTF-8" standalone="no"?>
<svg
   xmlns:dc="http://purl.org/dc/elements/1.1/"
   xmlns:cc="http://creativecommons.org/ns#"
   xmlns:rdf="http://www.w3.org/1999/02/22-rdf-syntax-ns#"
   xmlns:svg="http://www.w3.org/2000/svg"
   xmlns="http://www.w3.org/2000/svg"
   viewBox="0 0 1068.4399 286.34668"
   height="286.34668"
   width="1068.4399"
   xml:space="preserve"
   id="svg2"
   version="1.1"><metadata
     id="metadata8"><rdf:RDF><cc:Work
         rdf:about=""><dc:format>image/svg+xml</dc:format><dc:type
           rdf:resource="http://purl.org/dc/dcmitype/StillImage" /></cc:Work></rdf:RDF></metadata><defs
     id="defs6" /><g
     transform="matrix(1.3333333,0,0,-1.3333333,0,286.34667)"
     id="g10"><g
       transform="scale(0.1)"
       id="g12"><path
         id="path14"
         style="fill:#ffffff;fill-opacity:1;fill-rule:nonzero;stroke:none"
         d="m 5559.92,534.969 c -2.05,-15.84 -5.11,-30.699 -9.17,-44.508 -11.39,-39.012 -34,-68.871 -68.26,-88.961 -39.38,-23.109 -73.22,-26.75 -109.69,-21.949 -43.89,5.769 -94.49,35.469 -116.78,89.73 -14.29,34.778 -20.19,59.778 -20.97,98 -0.83,14.617 -0.22,29.43 1.81,44.481 2.02,15.039 5.08,29.449 9.14,43.289 11.39,36.558 33.31,65.008 65.84,85.32 32.48,20.309 67.43,28.84 104.83,25.59 7.31,-0.813 15.03,-2.031 23.17,-3.641 8.12,-1.64 15.84,-4.082 23.15,-7.308 34.14,-14.641 58.92,-38 74.37,-70.09 15.42,-32.121 23.95,-66.043 25.59,-101.801 0,-16.262 -1.02,-32.312 -3.03,-48.152 z m 156.03,170.062 c -15.86,43.059 -39.62,80.02 -71.32,110.918 -30.89,30.063 -68.07,52.621 -111.55,67.653 -43.48,15.027 -87.96,22.558 -133.47,22.558 -46.32,0 -91.24,-7.531 -134.72,-22.558 -43.48,-15.032 -80.65,-37.59 -111.52,-67.653 -31.7,-30.898 -55.49,-67.859 -71.33,-110.918 -15.83,-43.09 -23.75,-87.383 -23.75,-132.883 0,-45.519 7.92,-89.796 23.75,-132.867 15.84,-43.09 39.63,-80.07 71.33,-110.941 30.87,-30.078 67.84,-52.418 110.93,-67.039 43.07,-14.641 87.77,-21.949 134.09,-21.949 46.31,0 91.21,7.308 134.69,21.949 43.48,14.621 80.66,37.371 111.55,68.269 v 0 c 31.7,30.871 55.46,66.621 71.32,109.711 15.84,43.071 23.76,87.348 23.76,132.867 0,45.5 -7.92,89.793 -23.76,132.883" /><path
         id="path16"
         style="fill:#ffffff;fill-opacity:1;fill-rule:nonzero;stroke:none"
         d="m 7515.88,534.969 c -2.05,-15.84 -5.11,-30.699 -9.16,-44.508 -11.39,-39.012 -34.01,-68.871 -68.27,-88.961 -39.38,-23.109 -73.21,-26.75 -109.69,-21.949 -43.88,5.769 -94.49,35.469 -116.78,89.73 -14.29,34.778 -20.19,59.778 -20.97,98 -0.83,14.617 -0.22,29.43 1.81,44.481 2.03,15.039 5.09,29.449 9.14,43.289 11.39,36.558 33.32,65.008 65.85,85.32 32.48,20.309 67.43,28.84 104.82,25.59 7.31,-0.813 15.03,-2.031 23.17,-3.641 8.12,-1.64 15.84,-4.082 23.15,-7.308 34.14,-14.641 58.93,-38 74.37,-70.09 15.43,-32.121 23.96,-66.043 25.59,-101.801 0,-16.262 -1.02,-32.312 -3.03,-48.152 z m 156.04,170.062 c -15.86,43.059 -39.62,80.02 -71.32,110.918 -30.9,30.063 -68.07,52.621 -111.55,67.653 -43.48,15.027 -87.96,22.558 -133.48,22.558 -46.31,0 -91.24,-7.531 -134.71,-22.558 -43.48,-15.032 -80.66,-37.59 -111.53,-67.653 -31.7,-30.898 -55.48,-67.859 -71.32,-110.918 -15.83,-43.09 -23.75,-87.383 -23.75,-132.883 0,-45.519 7.92,-89.796 23.75,-132.867 15.84,-43.09 39.62,-80.07 71.32,-110.941 30.87,-30.078 67.85,-52.418 110.94,-67.039 43.06,-14.641 87.76,-21.949 134.08,-21.949 46.32,0 91.22,7.308 134.7,21.949 43.48,14.621 80.65,37.371 111.55,68.269 v 0 c 31.7,30.871 55.46,66.621 71.32,109.711 15.84,43.071 23.75,87.348 23.75,132.867 0,45.5 -7.91,89.793 -23.75,132.883" /><path
         id="path18"
         style="fill:#ffffff;fill-opacity:1;fill-rule:nonzero;stroke:none"
         d="m 4141.01,534.73 c -2.05,-15.832 -5.1,-30.671 -9.16,-44.468 -11.38,-38.981 -33.98,-68.821 -68.2,-88.891 -39.36,-23.09 -73.16,-26.723 -109.61,-21.93 -43.85,5.758 -94.41,35.43 -116.68,89.649 -14.28,34.75 -20.17,59.73 -20.96,97.922 -0.83,14.609 -0.22,29.41 1.81,44.449 2.03,15.019 5.08,29.43 9.14,43.25 11.37,36.539 33.28,64.961 65.79,85.258 32.45,20.293 67.38,28.812 104.74,25.57 7.3,-0.809 15.02,-2.027 23.15,-3.641 8.11,-1.636 15.82,-4.078 23.13,-7.308 34.11,-14.621 58.87,-37.969 74.31,-70.039 15.41,-32.09 23.93,-65.981 25.57,-101.711 0,-16.238 -1.02,-32.289 -3.03,-48.11 z m 155.91,169.918 c -15.85,43.032 -39.59,79.961 -71.26,110.832 -30.87,30.04 -68.02,52.571 -111.46,67.59 -43.45,15.02 -87.89,22.551 -133.37,22.551 -46.28,0 -91.16,-7.531 -134.61,-22.551 -43.44,-15.019 -80.59,-37.55 -111.43,-67.59 -31.68,-30.871 -55.44,-67.8 -71.27,-110.832 -15.82,-43.046 -23.73,-87.296 -23.73,-132.777 0,-45.473 7.91,-89.723 23.73,-132.75 15.83,-43.062 39.59,-80.012 71.27,-110.851 30.84,-30.059 67.79,-52.379 110.85,-66.989 43.02,-14.633 87.69,-21.929 133.97,-21.929 46.28,0 91.14,7.296 134.59,21.929 43.44,14.61 80.59,37.348 111.46,68.219 v 0 c 31.67,30.84 55.41,66.559 71.26,109.621 15.82,43.027 23.74,87.277 23.74,132.75 0,45.481 -7.92,89.731 -23.74,132.777" /><path
         id="path20"
         style="fill:#ffffff;fill-opacity:1;fill-rule:nonzero;stroke:none"
         d="m 6379.21,840.422 c -46.78,32.25 -112.1,48.789 -195.93,49.59 H 5803.24 V 252.66 h 168.11 v 497.07 l 198.62,-1.21 c 45.15,0 74.98,-7.688 89.51,-22.981 14.49,-15.328 21.77,-45.16 21.77,-89.508 V 252.66 h 168.09 v 402.719 c 0,91.101 -23.38,152.793 -70.13,185.043" /><path
         id="path22"
         style="fill:#ffffff;fill-opacity:1;fill-rule:nonzero;stroke:none"
         d="m 7985.39,750.191 -5.17,82.661 c -0.51,10.859 -0.51,24.277 -1.01,39.257 h -1.56 c -3.62,-12.371 -7.74,-28.898 -11.91,-41.82 l -25.28,-78.039 h -28.94 l -25.33,80.102 c -2.56,10.859 -6.72,27.386 -9.8,39.757 h -1.55 c 0,-12.918 -0.51,-26.339 -1.05,-39.257 l -5.18,-82.661 h -26.84 l 10.31,140.547 h 41.85 l 24.28,-68.726 c 3.11,-10.864 5.72,-21.172 9.3,-35.641 h 0.54 c 3.62,12.918 6.69,24.777 9.8,35.129 l 24.28,69.238 h 40.3 l 10.85,-140.547 z M 7833.48,890.738 V 867.48 h -44.92 V 750.191 h -27.89 V 867.48 h -44.97 v 23.258 h 117.78" /><path
         id="path24"
         style="fill:#ffffff;fill-opacity:1;fill-rule:nonzero;stroke:none"
         d="m 3281.82,391.262 h -15.89 c -17.73,0.797 -35.8,-0.231 -53.11,3.019 -17.36,3.199 -36.04,9.969 -50.54,20.457 -27.42,19.352 -46.9,42.274 -55.6,71.641 -6.75,22.793 -9.52,44.383 -8.78,113.141 0.71,64.968 34.5,113.992 78.09,132.07 45.84,19.019 91.39,19.988 145.6,19.019 h 75.14 l -1.9,-359.238 z m -21.79,497.539 c -44.34,0 -87.07,-4.629 -128.2,-13.891 -41.1,-9.289 -78.2,-29.64 -111.25,-61.09 -27.42,-26.601 -48.6,-57.66 -63.51,-93.109 -14.91,-35.5 -24.39,-71.781 -28.42,-108.852 -0.8,-7.25 -1.4,-14.527 -1.82,-21.777 -0.41,-7.242 -0.6,-14.5 -0.6,-21.773 0,-5.649 0.19,-11.5 0.6,-17.539 0.42,-6.032 0.61,-12.29 0.61,-18.739 4.03,-38.699 13.51,-76.601 28.42,-113.672 14.91,-37.109 36.47,-69.347 64.72,-96.757 35.45,-34.672 72.55,-54.84 111.25,-60.473 38.7,-5.649 81.43,-8.469 128.2,-8.469 h 136.67 c 1.6,-33.039 -5.58,-45.238 -23.57,-61.039 -17.69,-15.531 -27.15,-17.422 -27.15,-17.422 -34.12,-14.23 -77.65,-17.551 -133.74,-18 l -61.03,1.781 c -32.56,1.821 -60.85,4.231 -88.32,7.641 -26.67,3.32 -52.58,7.59 -80.86,13.238 V 41.3594 c 4.18,-0.8399 8.71,-1.6094 13.14,-2.3985 52.43,-9.3203 120.66,-15.25 173.82,-15.7109 75.69,-0.4609 166.05,-2.3203 236.26,9.4219 34.49,5.7773 65.1,23.5781 92.51,47.5976 17.38,14.7188 30.85,31.4295 40.44,50.0585 0.34,0.711 0.66,1.442 0.99,2.16 2.58,5.203 4.86,10.563 6.83,16.082 0.21,0.539 0.39,1.129 0.59,1.68 12.82,34.891 19.42,76.559 19.42,125.379 v 614.383 l -306,-1.211" /><path
         id="path26"
         style="fill:#ffffff;fill-opacity:1;fill-rule:nonzero;stroke:none"
         d="m 5042.55,1111.45 c -32.11,3.8 -65.3,6.11 -93.63,6.39 h -59.99 c -63.7,0 -111.66,-17.72 -143.91,-53.2 -32.25,-35.47 -48.38,-83.851 -48.38,-145.128 V 890.738 H 4578.11 V 750.191 h 118.53 V 620.32 252.672 h 168.12 V 620.32 l 0.45,129.871 H 5043 l -0.45,140.719 h -177.09 c 3.1,47.891 20.61,73.449 42.36,86.629 19.96,12.102 48.68,19.543 97.3,13.352 31.34,-3.262 50.48,-5.809 78.2,-11.45 v 46.099 5.03 74.81 c -21.35,4.87 -14.8,2.99 -40.77,6.07" /><path
         id="path28"
         style="fill:#ffffff;fill-opacity:1;fill-rule:nonzero;stroke:none"
         d="m 6928.17,379.012 c -48.63,-6.192 -77.35,1.25 -97.31,13.347 -21.75,13.192 -39.26,38.743 -42.36,86.629 l -0.29,271.203 h 177.83 v 140.547 h -177.99 l -0.25,227.102 H 6619.69 V 890.738 H 6501.15 V 750.191 h 118.54 V 479.16 450.379 c 0,-61.27 16.12,-109.649 48.37,-145.117 32.25,-35.481 80.21,-53.203 143.92,-53.203 h 59.98 c 28.34,0.281 61.51,2.601 93.63,6.402 25.97,3.07 19.41,1.199 40.76,6.059 v 74.812 5.039 46.09 c -27.71,-5.629 -46.85,-8.18 -78.18,-11.449" /><path
         id="path30"
         style="fill:#ffffff;fill-opacity:1;fill-rule:nonzero;stroke:none"
         d="m 4500.83,648.34 c -17.42,0 -28.43,-0.391 -40.3,-2.66 -8.18,-1.559 -15.43,-6.379 -21.93,-12.871 -5.55,-5.36 -9.42,-11.661 -11.62,-18.93 -2.19,-7.27 -3.3,-14.719 -3.3,-22.359 v -94.348 h 107.26 43.91 v 26.387 36.953 87.828 h -74.02" /><path
         id="path32"
         style="fill:#ffffff;fill-opacity:1;fill-rule:nonzero;stroke:none"
         d="m 1769.19,519.02 c -85.96,3.371 -150.46,18.621 -191.87,51.878 -39.94,30.461 -59.86,77.25 -59.86,143.762 0,49.86 13.81,89.988 38.36,121.891 22.55,27.969 52.01,46.91 96.8,58.32 44.79,11.399 114.3,10.731 114.3,10.731 h 114.99 c 85.96,0 150.46,-15.641 191.87,-49.743 33.35,-26.078 52.69,-66.078 58.18,-118.25 h -114.82 -43.78 c -4.36,12.711 -11.32,22.371 -20.84,28.762 -17.91,10.641 -43.33,17.34 -81.46,19.289 -7.64,0.379 -15.74,0.602 -24.45,0.602 l -57.02,0.129 c -43.33,-0.981 -71.37,-6.25 -90.7,-15.02 -11.25,-5.781 -18.99,-15 -22.95,-27.539 -0.73,-2.621 -1.37,-5.301 -1.86,-8.082 -0.38,-2.211 -0.69,-4.461 -0.92,-6.762 -0.39,-3.75 -0.64,-7.59 -0.64,-11.566 0,-30.5 9.17,-48.192 26.06,-59.25 21.51,-12.461 60.41,-19.402 112.57,-22.774 9,-0.296 97.37,-2.507 156.72,-13.277 52.02,-9.441 94.87,-26.359 114.21,-41.902 39.94,-30.457 59.86,-83.41 59.86,-149.91 0,-49.868 -13.8,-90 -38.36,-121.899 -22.55,-27.969 -52.01,-46.91 -96.8,-58.308 -44.79,-11.411 -114.3,-10.743 -114.3,-10.743 h -121.64 c -85.96,0 -150.46,15.641 -191.87,49.743 -33.35,26.078 -52.69,69.16 -58.18,121.328 h 114.82 43.78 c 4.36,-12.711 11.32,-25.45 20.84,-31.828 17.91,-10.653 43.33,-17.352 81.46,-19.301 7.64,-0.379 15.74,-0.602 24.45,-0.602 l 57.02,-0.14 c 43.33,0.992 78.03,6.261 97.35,15.031 11.26,5.769 18.99,15.012 22.96,27.539 0.73,2.621 1.36,5.301 1.85,8.082 0.39,2.211 0.69,4.461 0.93,6.758 0.38,3.75 0.63,7.59 0.63,11.582 0,30.5 -9.16,54.34 -26.06,65.398 -12.04,6.973 -38.96,16.352 -96.36,21.61 -33.07,3.043 -95.27,4.461 -95.27,4.461" /><path
         id="path34"
         style="fill:#ffffff;fill-opacity:1;fill-rule:nonzero;stroke:none"
         d="m 1042.68,308.57 c 5.56,-27.73 32.55,-45.711 60.29,-40.14 27.74,5.558 45.72,32.55 40.16,60.289 -5.56,27.742 -32.57,45.711 -60.31,40.152 -27.73,-5.57 -45.71,-32.562 -40.14,-60.301" /><path
         id="path36"
         style="fill:#ffffff;fill-opacity:1;fill-rule:nonzero;stroke:none"
         d="m 749.613,730.66 c 5.567,-27.738 32.555,-45.711 60.293,-40.148 27.735,5.57 45.727,32.558 40.164,60.297 -5.562,27.73 -32.57,45.703 -60.308,40.14 -27.739,-5.558 -45.711,-32.551 -40.149,-60.289" /><path
         id="path38"
         style="fill:#ffffff;fill-opacity:1;fill-rule:nonzero;stroke:none"
         d="m 904.719,311.301 c 5.562,-27.742 32.551,-45.719 60.289,-40.153 27.738,5.563 45.722,32.551 40.162,60.293 -5.557,27.739 -32.568,45.707 -60.303,40.149 -27.738,-5.57 -45.715,-32.559 -40.148,-60.289" /><path
         id="path40"
         style="fill:#ffffff;fill-opacity:1;fill-rule:nonzero;stroke:none"
         d="m 881.707,446.371 c 5.563,-27.742 32.555,-45.711 60.289,-40.152 27.738,5.562 45.731,32.551 40.172,60.293 -5.57,27.738 -32.574,45.707 -60.316,40.148 -27.735,-5.57 -45.707,-32.558 -40.145,-60.289" /><path
         id="path42"
         style="fill:#ffffff;fill-opacity:1;fill-rule:nonzero;stroke:none"
         d="m 1061.87,462.012 c 5.56,-27.731 32.55,-45.711 60.29,-40.153 27.74,5.563 45.73,32.563 40.16,60.301 -5.56,27.738 -32.57,45.699 -60.31,40.141 -27.74,-5.563 -45.7,-32.551 -40.14,-60.289" /><path
         id="path44"
         style="fill:#ffffff;fill-opacity:1;fill-rule:nonzero;stroke:none"
         d="m 628.797,579.191 c 5.566,-27.742 32.555,-45.722 60.293,-40.152 27.734,5.563 45.726,32.551 40.164,60.293 -5.559,27.738 -32.57,45.707 -60.305,40.148 -27.738,-5.57 -45.715,-32.55 -40.152,-60.289" /><path
         id="path46"
         style="fill:#ffffff;fill-opacity:1;fill-rule:nonzero;stroke:none"
         d="m 521.383,431.738 c 5.566,-27.738 32.555,-45.707 60.293,-40.148 27.734,5.57 45.73,32.558 40.168,60.301 -5.563,27.73 -32.574,45.699 -60.309,40.14 -27.738,-5.562 -45.711,-32.551 -40.152,-60.293" /><path
         id="path48"
         style="fill:#ffffff;fill-opacity:1;fill-rule:nonzero;stroke:none"
         d="m 959.313,603.262 c 5.562,-27.742 32.554,-45.723 60.287,-40.16 27.74,5.57 45.73,32.558 40.17,60.296 -5.56,27.743 -32.57,45.704 -60.309,40.141 -27.734,-5.559 -45.707,-32.551 -40.148,-60.277" /><path
         id="path50"
         style="fill:#ffffff;fill-opacity:1;fill-rule:nonzero;stroke:none"
         d="m 470.148,662.301 c 5.563,-27.731 32.555,-45.711 60.29,-40.141 27.738,5.559 45.734,32.551 40.164,60.289 -5.559,27.742 -32.567,45.711 -60.305,40.153 -27.742,-5.571 -45.707,-32.563 -40.149,-60.301" /><path
         id="path52"
         style="fill:#ffffff;fill-opacity:1;fill-rule:nonzero;stroke:none"
         d="m 1100.94,662.301 c 5.56,-27.731 32.55,-45.711 60.29,-40.141 27.74,5.559 45.73,32.551 40.16,60.289 -5.56,27.742 -32.56,45.711 -60.3,40.153 -27.74,-5.571 -45.71,-32.563 -40.15,-60.301" /><path
         id="path54"
         style="fill:#ffffff;fill-opacity:1;fill-rule:nonzero;stroke:none"
         d="m 595.172,782.531 c 5.562,-27.73 32.551,-45.711 60.289,-40.14 27.738,5.558 45.734,32.55 40.168,60.289 -5.563,27.742 -32.574,45.711 -60.309,40.148 -27.738,-5.566 -45.715,-32.558 -40.148,-60.297" /><path
         id="path56"
         style="fill:#ffffff;fill-opacity:1;fill-rule:nonzero;stroke:none"
         d="m 806.918,579.191 c 5.566,-27.742 32.551,-45.722 60.293,-40.152 27.734,5.563 45.727,32.551 40.164,60.293 -5.562,27.738 -32.574,45.707 -60.309,40.148 -27.738,-5.57 -45.711,-32.55 -40.148,-60.289" /><path
         id="path58"
         style="fill:#ffffff;fill-opacity:1;fill-rule:nonzero;stroke:none"
         d="m 355.277,805.441 c 5.563,-27.742 32.551,-45.711 60.286,-40.152 27.742,5.563 45.734,32.563 40.167,60.293 -5.562,27.738 -32.57,45.707 -60.308,40.148 -27.738,-5.57 -45.707,-32.55 -40.145,-60.289" /><path
         id="path60"
         style="fill:#ffffff;fill-opacity:1;fill-rule:nonzero;stroke:none"
         d="m 749.613,895.539 c 5.567,-27.738 32.555,-45.707 60.293,-40.148 27.735,5.558 45.727,32.558 40.164,60.289 -5.562,27.742 -32.57,45.711 -60.308,40.152 -27.739,-5.562 -45.711,-32.562 -40.149,-60.293" /><path
         id="path62"
         style="fill:#ffffff;fill-opacity:1;fill-rule:nonzero;stroke:none"
         d="m 665.07,1065.62 c 5.563,-27.73 32.555,-45.7 60.289,-40.14 27.739,5.56 45.731,32.56 40.164,60.29 -5.558,27.74 -32.566,45.71 -60.304,40.15 -27.742,-5.57 -45.711,-32.56 -40.149,-60.3" /><path
         id="path64"
         style="fill:#ffffff;fill-opacity:1;fill-rule:nonzero;stroke:none"
         d="m 441.813,1356.54 c 5.566,-27.74 32.554,-45.71 60.292,-40.15 27.735,5.57 45.731,32.56 40.168,60.3 -5.562,27.74 -32.574,45.7 -60.308,40.14 -27.738,-5.56 -45.711,-32.55 -40.152,-60.29" /><path
         id="path66"
         style="fill:#ffffff;fill-opacity:1;fill-rule:nonzero;stroke:none"
         d="m 89.9648,1541.88 c 5.5586,-27.74 32.5472,-45.71 60.2892,-40.15 27.738,5.57 45.73,32.56 40.164,60.3 -5.563,27.74 -32.574,45.7 -60.309,40.14 -27.738,-5.56 -45.7106,-32.55 -40.1442,-60.29" /><path
         id="path68"
         style="fill:#ffffff;fill-opacity:1;fill-rule:nonzero;stroke:none"
         d="m 254.441,1430.97 c 5.563,-27.74 32.555,-45.71 60.293,-40.15 27.735,5.57 45.727,32.56 40.164,60.3 -5.558,27.74 -32.57,45.7 -60.308,40.14 -27.738,-5.56 -45.711,-32.55 -40.149,-60.29" /><path
         id="path70"
         style="fill:#ffffff;fill-opacity:1;fill-rule:nonzero;stroke:none"
         d="m 272.836,1190.87 c 5.566,-27.74 32.551,-45.72 60.293,-40.15 27.734,5.56 45.726,32.55 40.164,60.3 -5.563,27.73 -32.574,45.7 -60.309,40.14 -27.738,-5.57 -45.711,-32.56 -40.148,-60.29" /><path
         id="path72"
         style="fill:#ffffff;fill-opacity:1;fill-rule:nonzero;stroke:none"
         d="m 493.055,1841.58 c 5.562,-27.74 32.554,-45.71 60.289,-40.15 27.738,5.57 45.73,32.56 40.168,60.3 -5.567,27.73 -32.571,45.7 -60.313,40.14 -27.738,-5.56 -45.707,-32.55 -40.144,-60.29" /><path
         id="path74"
         style="fill:#ffffff;fill-opacity:1;fill-rule:nonzero;stroke:none"
         d="m 749.613,1968.17 c 5.567,-27.74 32.555,-45.71 60.293,-40.15 27.735,5.56 45.727,32.55 40.164,60.29 -5.562,27.74 -32.57,45.71 -60.308,40.15 -27.739,-5.57 -45.711,-32.55 -40.149,-60.29" /><path
         id="path76"
         style="fill:#ffffff;fill-opacity:1;fill-rule:nonzero;stroke:none"
         d="m 1202.4,1923.72 c 5.56,-27.74 32.55,-45.7 60.28,-40.14 27.74,5.56 45.74,32.55 40.17,60.29 -5.56,27.74 -32.57,45.71 -60.31,40.14 -27.73,-5.56 -45.71,-32.55 -40.14,-60.29" /><path
         id="path78"
         style="fill:#ffffff;fill-opacity:1;fill-rule:nonzero;stroke:none"
         d="m 1315.27,2086.26 c 5.57,-27.74 32.55,-45.71 60.29,-40.15 27.74,5.56 45.73,32.56 40.17,60.3 -5.56,27.73 -32.57,45.7 -60.31,40.14 -27.74,-5.56 -45.71,-32.55 -40.15,-60.29" /><path
         id="path80"
         style="fill:#ffffff;fill-opacity:1;fill-rule:nonzero;stroke:none"
         d="m 1165.14,1139.64 c 5.57,-27.74 32.56,-45.71 60.3,-40.15 27.73,5.56 45.72,32.55 40.16,60.29 -5.56,27.74 -32.57,45.71 -60.31,40.15 -27.73,-5.57 -45.71,-32.55 -40.15,-60.29" /><path
         id="path82"
         style="fill:#ffffff;fill-opacity:1;fill-rule:nonzero;stroke:none"
         d="m 1113.91,982.789 c 5.56,-27.738 32.55,-45.707 60.29,-40.148 27.74,5.558 45.73,32.55 40.16,60.289 -5.56,27.74 -32.57,45.71 -60.3,40.15 -27.74,-5.57 -45.72,-32.55 -40.15,-60.291" /><path
         id="path84"
         style="fill:#ffffff;fill-opacity:1;fill-rule:nonzero;stroke:none"
         d="m 991.438,1345.48 c 5.562,-27.74 32.552,-45.71 60.292,-40.15 27.74,5.57 45.73,32.56 40.17,60.3 -5.57,27.73 -32.58,45.7 -60.32,40.14 -27.73,-5.56 -45.701,-32.56 -40.142,-60.29" /><path
         id="path86"
         style="fill:#ffffff;fill-opacity:1;fill-rule:nonzero;stroke:none"
         d="m 808.23,1403.35 c 5.563,-27.74 32.555,-45.71 60.29,-40.14 27.738,5.56 45.73,32.55 40.168,60.29 -5.559,27.73 -32.571,45.7 -60.309,40.14 -27.738,-5.56 -45.711,-32.55 -40.149,-60.29" /><path
         id="path88"
         style="fill:#ffffff;fill-opacity:1;fill-rule:nonzero;stroke:none"
         d="m 695.816,1254.09 c 5.567,-27.74 32.555,-45.72 60.293,-40.16 27.735,5.57 45.731,32.56 40.168,60.3 -5.562,27.73 -32.574,45.7 -60.308,40.15 -27.739,-5.57 -45.711,-32.56 -40.153,-60.29" /><path
         id="path90"
         style="fill:#ffffff;fill-opacity:1;fill-rule:nonzero;stroke:none"
         d="m 955.09,1573.09 c 5.566,-27.75 32.555,-45.71 60.29,-40.15 27.74,5.56 45.73,32.55 40.17,60.29 -5.56,27.74 -32.57,45.71 -60.308,40.14 -27.738,-5.56 -45.715,-32.55 -40.152,-60.28" /><path
         id="path92"
         style="fill:#ffffff;fill-opacity:1;fill-rule:nonzero;stroke:none"
         d="m 1100.5,1470.99 c 5.56,-27.74 32.55,-45.71 60.29,-40.15 27.74,5.56 45.73,32.56 40.17,60.3 -5.56,27.73 -32.57,45.7 -60.31,40.14 -27.74,-5.57 -45.71,-32.56 -40.15,-60.29" /><path
         id="path94"
         style="fill:#ffffff;fill-opacity:1;fill-rule:nonzero;stroke:none"
         d="m 1264.04,1573.09 c 5.56,-27.75 32.55,-45.71 60.28,-40.15 27.74,5.56 45.74,32.55 40.17,60.29 -5.56,27.74 -32.57,45.71 -60.31,40.14 -27.74,-5.56 -45.71,-32.55 -40.14,-60.28" /><path
         id="path96"
         style="fill:#ffffff;fill-opacity:1;fill-rule:nonzero;stroke:none"
         d="m 1464.23,1659.91 c 5.57,-27.74 32.55,-45.71 60.29,-40.14 27.74,5.55 45.73,32.55 40.17,60.29 -5.56,27.74 -32.57,45.71 -60.31,40.14 -27.74,-5.56 -45.71,-32.55 -40.15,-60.29" /><path
         id="path98"
         style="fill:#ffffff;fill-opacity:1;fill-rule:nonzero;stroke:none"
         d="m 1680.02,1624.32 c 5.56,-27.75 32.55,-45.72 60.29,-40.16 27.73,5.57 45.73,32.56 40.17,60.3 -5.57,27.74 -32.58,45.7 -60.32,40.14 -27.73,-5.56 -45.7,-32.55 -40.14,-60.28" /><path
         id="path100"
         style="fill:#ffffff;fill-opacity:1;fill-rule:nonzero;stroke:none"
         d="m 1093.91,1735.27 c 5.57,-27.74 32.56,-45.72 60.3,-40.16 27.73,5.57 45.72,32.57 40.16,60.3 -5.56,27.74 -32.57,45.71 -60.31,40.14 -27.73,-5.56 -45.71,-32.55 -40.15,-60.28" /><path
         id="path102"
         style="fill:#ffffff;fill-opacity:1;fill-rule:nonzero;stroke:none"
         d="m 776.988,1644.34 c 5.567,-27.73 32.555,-45.71 60.293,-40.15 27.735,5.56 45.731,32.56 40.168,60.29 -5.562,27.75 -32.574,45.71 -60.308,40.15 -27.739,-5.56 -45.711,-32.55 -40.153,-60.29" /><path
         id="path104"
         style="fill:#ffffff;fill-opacity:1;fill-rule:nonzero;stroke:none"
         d="m 595.172,1644.34 c 5.562,-27.73 32.551,-45.71 60.289,-40.15 27.738,5.56 45.734,32.56 40.168,60.29 -5.563,27.75 -32.57,45.71 -60.309,40.15 -27.738,-5.56 -45.715,-32.55 -40.148,-60.29" /><path
         id="path106"
         style="fill:#ffffff;fill-opacity:1;fill-rule:nonzero;stroke:none"
         d="m 635.531,1432.31 c 17.86,-21.94 50.121,-25.24 72.055,-7.38 21.937,17.87 25.254,50.14 7.391,72.07 -17.86,21.94 -50.137,25.23 -72.075,7.37 -21.933,-17.87 -25.234,-50.12 -7.371,-72.06" /><path
         id="path108"
         style="fill:#ffffff;fill-opacity:1;fill-rule:nonzero;stroke:none"
         d="m 998.453,1149.69 c 5.567,-27.74 32.557,-45.71 60.287,-40.15 27.74,5.57 45.74,32.56 40.17,60.3 -5.56,27.73 -32.57,45.71 -60.31,40.14 -27.74,-5.56 -45.705,-32.55 -40.147,-60.29" /><path
         id="path110"
         style="fill:#ffffff;fill-opacity:1;fill-rule:nonzero;stroke:none"
         d="m 831.762,1139.64 c 5.558,-27.74 32.551,-45.71 60.293,-40.15 27.734,5.56 45.726,32.55 40.164,60.29 -5.563,27.74 -32.574,45.71 -60.313,40.15 -27.734,-5.57 -45.707,-32.55 -40.144,-60.29" /><path
         id="path112"
         style="fill:#ffffff;fill-opacity:1;fill-rule:nonzero;stroke:none"
         d="m 902.438,969.07 c 5.562,-27.738 32.55,-45.711 60.289,-40.148 27.738,5.566 45.723,32.558 40.163,60.297 -5.558,27.731 -32.57,45.701 -60.304,40.141 -27.738,-5.56 -45.711,-32.559 -40.148,-60.29" /><path
         id="path114"
         style="fill:#ffffff;fill-opacity:1;fill-rule:nonzero;stroke:none"
         d="m 1042.68,833.762 c 5.56,-27.742 32.55,-45.711 60.29,-40.141 27.74,5.559 45.72,32.551 40.16,60.289 -5.56,27.731 -32.57,45.699 -60.31,40.141 -27.73,-5.563 -45.71,-32.551 -40.14,-60.289" /><path
         id="path116"
         style="fill:#ffffff;fill-opacity:1;fill-rule:nonzero;stroke:none"
         d="m 903.855,762.719 c 5.563,-27.739 32.555,-45.707 60.29,-40.137 27.738,5.559 45.735,32.547 40.165,60.289 -5.56,27.731 -32.568,45.699 -60.306,40.141 -27.742,-5.563 -45.711,-32.551 -40.149,-60.293" /><path
         id="path118"
         style="fill:#ffffff;fill-opacity:1;fill-rule:nonzero;stroke:none"
         d="m 521.383,960.41 c 5.566,-27.738 32.555,-45.711 60.293,-40.148 27.734,5.558 45.73,32.558 40.168,60.289 -5.563,27.739 -32.574,45.709 -60.309,40.149 -27.738,-5.57 -45.711,-32.559 -40.152,-60.29" /><path
         id="path120"
         style="fill:#ffffff;fill-opacity:1;fill-rule:nonzero;stroke:none"
         d="m 1309.15,1254.09 c 5.56,-27.74 32.56,-45.72 60.29,-40.16 27.74,5.57 45.73,32.56 40.17,60.3 -5.56,27.73 -32.57,45.7 -60.31,40.15 -27.74,-5.57 -45.71,-32.56 -40.15,-60.29" /><path
         id="path122"
         style="fill:#ffffff;fill-opacity:1;fill-rule:nonzero;stroke:none"
         d="m 1503.36,1305.31 c 5.56,-27.74 32.55,-45.71 60.29,-40.15 27.73,5.57 45.73,32.56 40.17,60.3 -5.57,27.74 -32.58,45.7 -60.32,40.15 -27.73,-5.57 -45.7,-32.56 -40.14,-60.3" /><path
         id="path124"
         style="fill:#ffffff;fill-opacity:1;fill-rule:nonzero;stroke:none"
         d="m 375.316,2035.03 c 5.563,-27.74 32.547,-45.71 60.286,-40.15 27.742,5.57 45.734,32.56 40.168,60.3 -5.563,27.73 -32.571,45.7 -60.309,40.14 -27.738,-5.56 -45.711,-32.55 -40.145,-60.29" /><path
         id="path126"
         style="fill:#ffffff;fill-opacity:1;fill-rule:nonzero;stroke:none"
         d="m 254.441,969.07 c 5.563,-27.738 32.555,-45.711 60.293,-40.148 27.735,5.566 45.727,32.558 40.164,60.297 -5.558,27.731 -32.57,45.701 -60.308,40.141 -27.738,-5.56 -45.711,-32.559 -40.149,-60.29" /><path
         id="path128"
         style="fill:#ffffff;fill-opacity:1;fill-rule:nonzero;stroke:none"
         d="m 199.836,679.43 c 5.562,-27.739 32.551,-45.711 60.289,-40.141 27.738,5.563 45.73,32.551 40.168,60.293 -5.563,27.738 -32.57,45.707 -60.309,40.137 -27.742,-5.559 -45.714,-32.547 -40.148,-60.289" /><path
         id="path130"
         style="fill:#ffffff;fill-opacity:1;fill-rule:nonzero;stroke:none"
         d="m 766.754,262.609 c 5.566,-27.738 32.555,-45.711 60.293,-40.148 27.734,5.559 45.73,32.551 40.168,60.289 -5.563,27.738 -32.574,45.711 -60.309,40.141 -27.738,-5.559 -45.711,-32.551 -40.152,-60.282" /><path
         id="path132"
         style="fill:#ffffff;fill-opacity:1;fill-rule:nonzero;stroke:none"
         d="m 628.797,279.371 c 5.566,-27.742 32.555,-45.711 60.293,-40.152 27.734,5.562 45.726,32.562 40.164,60.293 -5.559,27.738 -32.57,45.707 -60.305,40.148 -27.738,-5.57 -45.715,-32.551 -40.152,-60.289" /><path
         id="path134"
         style="fill:#ffffff;fill-opacity:1;fill-rule:nonzero;stroke:none"
         d="m 457.754,1139.64 c 5.559,-27.74 32.551,-45.71 60.285,-40.15 27.738,5.56 45.734,32.55 40.172,60.29 -5.566,27.74 -32.574,45.71 -60.313,40.15 -27.734,-5.57 -45.707,-32.55 -40.144,-60.29" /><path
         id="path136"
         style="fill:#ffffff;fill-opacity:1;fill-rule:nonzero;stroke:none"
         d="m 1.00781,650.371 c 5.56641,-27.73 32.55469,-45.699 60.29299,-40.141 27.7344,5.559 45.7262,32.559 40.1682,60.29 -5.5627,27.742 -32.5745,45.71 -60.3088,40.152 C 13.4219,705.109 -4.55469,678.109 1.00781,650.371" /><path
         id="path138"
         style="fill:#ffffff;fill-opacity:1;fill-rule:nonzero;stroke:none"
         d="m 1049.27,155.129 c 5.56,-27.731 32.54,-45.699 60.28,-40.141 27.74,5.563 45.73,32.563 40.17,60.293 -5.56,27.739 -32.57,45.707 -60.31,40.149 -27.74,-5.559 -45.71,-32.559 -40.14,-60.301" /><path
         id="path140"
         style="fill:#ffffff;fill-opacity:1;fill-rule:nonzero;stroke:none"
         d="m 701.891,409.191 c 6.445,-27.55 33.996,-44.66 61.539,-38.211 27.55,6.442 44.668,33.989 38.226,61.54 -6.445,27.55 -34.011,44.652 -61.554,38.21 -27.551,-6.449 -44.649,-34 -38.211,-61.539" /><path
         id="path142"
         style="fill:#ffffff;fill-opacity:1;fill-rule:nonzero;stroke:none"
         d="m 776.988,114.43 c 5.567,-27.7386 32.555,-45.7112 60.293,-40.1487 27.735,5.5703 45.731,32.5587 40.168,60.3007 -5.562,27.727 -32.574,45.699 -60.308,40.137 -27.739,-5.559 -45.711,-32.547 -40.153,-60.289" /><path
         id="path144"
         style="fill:#ffffff;fill-opacity:1;fill-rule:nonzero;stroke:none"
         d="m 945.719,41.1602 c 5.562,-27.7383 32.554,-45.71098 60.291,-40.14848 27.74,5.55859 45.73,32.55858 40.16,60.28908 -5.56,27.7383 -32.56,45.7112 -60.303,40.1482 C 958.129,95.8789 940.16,68.8906 945.719,41.1602" /><path
         id="path146"
         style="fill:#ffffff;fill-opacity:1;fill-rule:nonzero;stroke:none"
         d="m 913.129,176.23 c 5.559,-27.742 32.551,-45.71 60.289,-40.148 27.732,5.559 45.732,32.559 40.172,60.297 -5.57,27.73 -32.578,45.703 -60.317,40.141 -27.734,-5.559 -45.707,-32.559 -40.144,-60.29" /><path
         id="path148"
         style="fill:#ffffff;fill-opacity:1;fill-rule:nonzero;stroke:none"
         d="m 1165.14,245.34 c 5.57,-27.731 32.56,-45.711 60.3,-40.149 27.73,5.571 45.72,32.559 40.16,60.297 -5.56,27.742 -32.57,45.703 -60.31,40.141 -27.73,-5.559 -45.71,-32.547 -40.15,-60.289" /><path
         id="path150"
         style="fill:#ffffff;fill-opacity:1;fill-rule:nonzero;stroke:none"
         d="m 355.277,523.84 c 5.563,-27.738 32.551,-45.719 60.286,-40.16 27.742,5.57 45.734,32.558 40.167,60.3 -5.562,27.739 -32.57,45.711 -60.308,40.141 -27.738,-5.562 -45.707,-32.551 -40.145,-60.281" /><path
         id="path152"
         style="fill:#ffffff;fill-opacity:1;fill-rule:nonzero;stroke:none"
         d="m 2670.26,390.738 h -234.79 c -23.69,0 -40.45,6.344 -53.02,18.192 -12.58,11.851 -18.28,28.3 -17.11,49.351 2.05,25.301 11.84,42.34 29.39,49.801 17.54,7.457 37.08,10.77 61.36,10.77 l 73.46,0.398 h 140.71 z M 2843.2,657.23 c 0,91.102 -23.37,152.79 -70.13,185.04 -18.55,12.8 -40.15,23.011 -64.54,30.859 -5.36,1.73 -10.86,3.359 -16.51,4.851 -1.42,0.321 -2.8,0.75 -4.23,1.032 -33.63,6.418 -71.86,9.269 -110.87,10.449 -38.36,1.148 -77.49,0.687 -113.78,0.391 -3.86,-0.032 -7.82,-0.071 -11.6,-0.09 -57.66,-0.582 -133.26,-8.422 -186.97,-20.653 v -84.14 -5.047 -0.621 -51.832 c 57.41,13.082 108.46,18.863 171.73,20.422 l 61.37,0.16 c 57.2,0.629 99.28,-2.43 133.4,-18.653 29.01,-13.789 41.63,-35.32 39.19,-87.718 l -202.53,-1.219 c -66.95,0 -120.82,-10.031 -169.19,-32.582 -48.38,-22.598 -75.39,-74.188 -81.02,-150.758 -3.24,-63.699 12.5,-113.512 47.17,-149.371 34.65,-35.891 80.88,-55.078 146.17,-55.078 h 432.34 v 397.887 c 0,2.23 -0.19,4.421 -0.24,6.652 l 0.24,0.019" /></g></g></svg>